<svg xmlns="http://www.w3.org/2000/svg" version="1.1" xmlns:xlink="http://www.w3.org/1999/xlink" xmlns:svgjs="http://svgjs.com/svgjs" width="1440" height="560" preserveAspectRatio="none" viewBox="0 0 1440 560"><g mask="url(&quot;#SvgjsMask1030&quot;)" fill="none"><path d="M225.44179638986725 236.46831345709404L333.15667151759266 348.01033189801944 336.98381483079265 128.75343832936863z" fill="rgba(121, 19, 237, 0.27)" class="triangle-float1"></path><path d="M1441.1727827445663 22.547485063871747L1373.6617349243547-63.86271567419493 1277.8019577273606 80.60895642515587z" fill="rgba(121, 19, 237, 0.27)" class="triangle-float2"></path><path d="M1101.5936026616803 315.57266681372846L1243.8054020217257 287.92949329109155 1216.1622284990888 145.71769393104617 1073.9504291390433 173.36086745368308z" fill="rgba(121, 19, 237, 0.27)" class="triangle-float1"></path><path d="M837.5394343602591 173.8462986870449L915.320470679435 263.4955573654654 950.8057850057477 166.0004575316714z" fill="rgba(121, 19, 237, 0.27)" class="triangle-float1"></path><path d="M124.7905922992854 202.49796296389735L33.781850853289555 273.6017845421201 195.8944138775081 293.5067044098932z" fill="rgba(121, 19, 237, 0.27)" class="triangle-float1"></path><path d="M746.2414876693261 11.17721735622549L729.1498906697191-57.373434013476945 634.8697121149689 2.539287170784867z" fill="rgba(121, 19, 237, 0.27)" class="triangle-float2"></path><path d="M1080.0217691535288 444.3575288659767L966.8459602000172 529.4726333935319 1079.9330816117154 579.822263784989z" fill="rgba(121, 19, 237, 0.27)" class="triangle-float3"></path><path d="M848.6283537653808 466.68330504814287L1000.2171489455255 414.6486396603148 896.1010764972182 320.9021069514519z" fill="rgba(121, 19, 237, 0.27)" class="triangle-float1"></path><path d="M194.89794632259412 592.4397247976899L353.7211098808482 592.4397247976899 353.7211098808482 433.6165612394358 194.8979463225941 433.6165612394358z" fill="rgba(121, 19, 237, 0.27)" class="triangle-float3"></path><path d="M19.234912877936537 620.884636049132L133.56575263922423 606.8465740913821 119.5276906814742 492.51573433009435 5.19685092018652 506.55379628784436z" fill="rgba(121, 19, 237, 0.27)" class="triangle-float2"></path><path d="M321.6591084471841 301.83060705335464L271.26543759007444 217.78011634441916 228.43171533673635 291.97029956449444z" fill="rgba(121, 19, 237, 0.27)" class="triangle-float2"></path><path d="M1099.0460372439522 158.22814894565113L1224.2768038210174 85.9261321515593 1151.9747870269255-39.30463442550587 1026.7440204498605 32.997382368585974z" fill="rgba(121, 19, 237, 0.27)" class="triangle-float3"></path><path d="M1288.7227852703895 333.40139349106664L1300.6161249444501 197.45989896204796 1164.6746304154315 185.56655928798745 1152.7812907413709 321.5080538170061z" fill="rgba(121, 19, 237, 0.27)" class="triangle-float3"></path><path d="M207.59308910937818 219.38792625366352L256.8261185598678 67.86424202862736 56.06940488434202 170.1548968031739z" fill="rgba(121, 19, 237, 0.27)" class="triangle-float2"></path><path d="M-25.448500995656747 340.50716895705915L-70.34765529443594 451.6364754914773 40.781651239982224 496.5356297902565 85.68080553876142 385.40632325583834z" fill="rgba(121, 19, 237, 0.27)" class="triangle-float3"></path><path d="M704.5256532149763 80.14622300478462L764.1042305235758 74.9337729012793 726.496266714018-11.827868009867302z" fill="rgba(121, 19, 237, 0.27)" class="triangle-float2"></path><path d="M1424.4209686804245 73.47901180136041L1339.991388731016 82.35291823574528 1348.865295165401 166.7824981851537 1433.2948751148094 157.90859175076884z" fill="rgba(121, 19, 237, 0.27)" class="triangle-float2"></path></g><defs><mask id="SvgjsMask1030"><rect width="1440" height="560" fill="#ffffff"></rect></mask><style>
            @keyframes float1 {
                0%{transform: translate(0, 0)}
                50%{transform: translate(-10px, 0)}
                100%{transform: translate(0, 0)}
            }

            .triangle-float1 {
                animation: float1 5s infinite;
            }

            @keyframes float2 {
                0%{transform: translate(0, 0)}
                50%{transform: translate(-5px, -5px)}
                100%{transform: translate(0, 0)}
            }

            .triangle-float2 {
                animation: float2 4s infinite;
            }

            @keyframes float3 {
                0%{transform: translate(0, 0)}
                50%{transform: translate(0, -10px)}
                100%{transform: translate(0, 0)}
            }

            .triangle-float3 {
                animation: float3 6s infinite;
            }
        </style></defs></svg>