<svg xmlns="http://www.w3.org/2000/svg" version="1.1" xmlns:xlink="http://www.w3.org/1999/xlink" xmlns:svgjs="http://svgjs.com/svgjs" width="1440" height="800" preserveAspectRatio="none" viewBox="0 0 1440 800"><g mask="url(&quot;#SvgjsMask1030&quot;)" fill="none"><path d="M971.31 769.33 a4.15 4.15 0 1 0 8.3 0 a4.15 4.15 0 1 0 -8.3 0z" stroke="rgba(121, 19, 237, 1)"></path><path d="M714.17 4.85L778.4 4.85L778.4 76.88L714.17 76.88z" fill="rgba(121, 19, 237, 1)"></path><path d="M311.51 386.79 a7.52 7.52 0 1 0 15.04 0 a7.52 7.52 0 1 0 -15.04 0z" fill="rgba(121, 19, 237, 1)"></path><path d="M1128.45 766.63L1183.24 766.63L1183.24 821.42L1128.45 821.42z" stroke="rgba(121, 19, 237, 1)"></path><path d="M586.06 445.91 a74.51 74.51 0 1 0 149.02 0 a74.51 74.51 0 1 0 -149.02 0z" stroke="rgba(121, 19, 237, 1)"></path><path d="M1336.77 574.8a13.73 13.73 0 1 0 11.83 24.78z" fill="rgba(121, 19, 237, 1)"></path><path d="M486.86 677.83L506 677.83L506 723.86L486.86 723.86z" stroke="rgba(121, 19, 237, 1)"></path><path d="M428.96 552.17L471.9 552.17L471.9 595.11L428.96 595.11z" stroke="rgba(121, 19, 237, 1)"></path><path d="M1380.59 438.98L1400.25 438.98L1400.25 458.64L1380.59 458.64z" stroke="rgba(121, 19, 237, 1)"></path><path d="M715.99 786.84L788.76 786.84L788.76 806.3L715.99 806.3z" fill="rgba(121, 19, 237, 1)"></path><path d="M344.58 392.1 a72.15 72.15 0 1 0 144.3 0 a72.15 72.15 0 1 0 -144.3 0z" fill="rgba(121, 19, 237, 1)"></path><path d="M57.77 725.79L123.02 725.79L123.02 758.15L57.77 758.15z" stroke="rgba(121, 19, 237, 1)"></path><path d="M-1.55 567.68a7.77 7.77 0 1 0 15.16 3.38z" stroke="rgba(121, 19, 237, 1)"></path><path d="M290.94 632.42 a42.03 42.03 0 1 0 84.06 0 a42.03 42.03 0 1 0 -84.06 0z" stroke="rgba(121, 19, 237, 1)"></path><path d="M23.53 381.51L94.55 381.51L94.55 452.53L23.53 452.53z" stroke="rgba(121, 19, 237, 1)"></path><path d="M405.86 54.04L459.55 54.04L459.55 107.73L405.86 107.73z" stroke="rgba(121, 19, 237, 1)"></path><path d="M830.92 465.07a22.5 22.5 0 1 0-10.44-43.77z" fill="rgba(121, 19, 237, 1)"></path><path d="M1119.16 501.45L1157.12 501.45L1157.12 539.41L1119.16 539.41z" fill="rgba(121, 19, 237, 1)"></path><path d="M430.39 458.78L485.04 458.78L485.04 524.99L430.39 524.99z" stroke="rgba(121, 19, 237, 1)"></path><path d="M1078.48 101.81a1.87 1.87 0 1 0 1.52-3.42z" stroke="rgba(121, 19, 237, 1)"></path><path d="M716.28 238.42L721.71 238.42L721.71 249.24L716.28 249.24z" fill="rgba(121, 19, 237, 1)"></path><path d="M911.01 639.38a33.78 33.78 0 1 0 32.2-59.39z" fill="rgba(121, 19, 237, 1)"></path><path d="M1411.59 338.3L1457.58 338.3L1457.58 384.29L1411.59 384.29z" stroke="rgba(121, 19, 237, 1)"></path></g><defs><mask id="SvgjsMask1030"><rect width="1440" height="800" fill="#ffffff"></rect></mask></defs></svg>